<svg width="222" height="35" viewBox="0 0 222 35" fill="none" xmlns="http://www.w3.org/2000/svg">
    <path d="M32 5.2263C32 3.3939 31.04 1.83922 29.6996 1.25358L29.6181 1.21735C29.5708 1.19661 29.5224 1.17847 29.4732 1.16302L29.2951 1.10566L29.1773 1.07547C29.1049 1.06038 29.0294 1.04528 28.957 1.03622L28.8573 1.02113C28.7481 1.00798 28.6383 1.00093 28.5283 1H2.86792C2.1073 1 1.37783 1.30214 0.83999 1.83997C0.302151 2.37779 0 3.10725 0 3.86785V9.30166C0 10.0623 0.302151 10.7917 0.83999 11.3295C1.37783 11.8674 2.1073 12.1695 2.86792 12.1695C3.62854 12.1695 4.35801 11.8674 4.89585 11.3295C5.43369 10.7917 5.73584 10.0623 5.73584 9.30166V6.73569H22.243L1.50943 17.9203C0.840151 18.2814 0.341724 18.8936 0.123765 19.6222C-0.0941937 20.3508 -0.0138391 21.1361 0.347168 21.8055C0.7078 22.4737 1.3187 22.9716 2.04591 23.19C2.77311 23.4084 3.55726 23.3296 4.22641 22.9707L29.4853 9.34996C31.6981 7.94321 32 7.03757 32 5.2263Z" fill="url(#Gradient1)"/>
    <path d="M25.3584 22.2048L30.5284 19.4078C31.187 19.0375 31.6743 18.4226 31.8853 17.6954C32.0962 16.9681 32.014 16.1869 31.6564 15.5199C31.2987 14.8529 30.6942 14.3535 29.9731 14.1294C29.252 13.9052 28.4719 13.9742 27.801 14.3215L1.51176 28.5466C0.839911 28.9104 0.33957 29.5269 0.120774 30.2607C-0.098022 30.9944 -0.0173587 31.7853 0.345034 32.4594C0.707052 33.1323 1.3203 33.6338 2.0503 33.8537C2.78029 34.0737 3.56746 33.9943 4.23918 33.6329L20.4218 24.8832L26.0554 32.7877C26.5094 33.3852 27.1655 33.7955 27.9002 33.9411C28.6348 34.0867 29.3972 33.9576 30.0435 33.5782C30.3539 33.4094 30.6248 33.1761 30.838 32.8939C31.0512 32.6116 31.2019 32.2869 31.28 31.9415C31.358 31.5961 31.3616 31.238 31.2905 30.8911C31.2194 30.5441 31.0753 30.2165 30.8678 29.9299L25.3584 22.2048Z" fill="url(#Gradient2)"/>
    <path d="M42.37 12.76H49.75C50.77 12.76 51.75 12.86 52.69 13.06C53.65 13.24 54.5 13.56 55.24 14.02C55.98 14.48 56.57 15.1 57.01 15.88C57.45 16.66 57.67 17.65 57.67 18.85C57.67 20.39 57.24 21.68 56.38 22.72C55.54 23.76 54.33 24.39 52.75 24.61L58.39 34H53.83L48.91 25H46.15V34H42.37V12.76ZM49.09 21.76C49.63 21.76 50.17 21.74 50.71 21.7C51.25 21.64 51.74 21.52 52.18 21.34C52.64 21.14 53.01 20.85 53.29 20.47C53.57 20.07 53.71 19.52 53.71 18.82C53.71 18.2 53.58 17.7 53.32 17.32C53.06 16.94 52.72 16.66 52.3 16.48C51.88 16.28 51.41 16.15 50.89 16.09C50.39 16.03 49.9 16 49.42 16H46.15V21.76H49.09ZM61.2665 12.76H75.3365V16.18H65.0465V21.4H74.7965V24.82H65.0465V30.58H75.8765V34H61.2665V12.76ZM83.9563 16.18H77.4463V12.76H94.2463V16.18H87.7363V34H83.9563V16.18ZM95.6929 23.47C95.6929 21.77 95.9729 20.23 96.5329 18.85C97.0929 17.45 97.8629 16.26 98.8429 15.28C99.8429 14.3 101.023 13.55 102.383 13.03C103.763 12.49 105.273 12.22 106.913 12.22C108.573 12.2 110.093 12.45 111.473 12.97C112.853 13.47 114.043 14.21 115.043 15.19C116.043 16.17 116.823 17.35 117.383 18.73C117.943 20.11 118.223 21.65 118.223 23.35C118.223 25.01 117.943 26.52 117.383 27.88C116.823 29.24 116.043 30.41 115.043 31.39C114.043 32.37 112.853 33.14 111.473 33.7C110.093 34.24 108.573 34.52 106.913 34.54C105.273 34.54 103.763 34.28 102.383 33.76C101.023 33.22 99.8429 32.47 98.8429 31.51C97.8629 30.53 97.0929 29.36 96.5329 28C95.9729 26.64 95.6929 25.13 95.6929 23.47ZM99.6529 23.23C99.6529 24.37 99.8229 25.42 100.163 26.38C100.523 27.34 101.023 28.17 101.663 28.87C102.303 29.57 103.063 30.12 103.943 30.52C104.843 30.92 105.843 31.12 106.943 31.12C108.043 31.12 109.043 30.92 109.943 30.52C110.843 30.12 111.613 29.57 112.253 28.87C112.893 28.17 113.383 27.34 113.723 26.38C114.083 25.42 114.263 24.37 114.263 23.23C114.263 22.17 114.083 21.18 113.723 20.26C113.383 19.34 112.893 18.54 112.253 17.86C111.613 17.16 110.843 16.62 109.943 16.24C109.043 15.84 108.043 15.64 106.943 15.64C105.843 15.64 104.843 15.84 103.943 16.24C103.063 16.62 102.303 17.16 101.663 17.86C101.023 18.54 100.523 19.34 100.163 20.26C99.8229 21.18 99.6529 22.17 99.6529 23.23ZM138.833 26.2C138.833 27.48 138.613 28.64 138.173 29.68C137.733 30.7 137.133 31.57 136.373 32.29C135.613 33.01 134.713 33.57 133.673 33.97C132.633 34.35 131.503 34.54 130.283 34.54C129.063 34.54 127.933 34.35 126.893 33.97C125.853 33.57 124.943 33.01 124.163 32.29C123.403 31.57 122.803 30.7 122.363 29.68C121.943 28.64 121.733 27.48 121.733 26.2V12.76H125.513V26.08C125.513 26.6 125.593 27.15 125.753 27.73C125.913 28.29 126.173 28.81 126.533 29.29C126.913 29.77 127.403 30.17 128.003 30.49C128.623 30.79 129.383 30.94 130.283 30.94C131.183 30.94 131.933 30.79 132.533 30.49C133.153 30.17 133.643 29.77 134.003 29.29C134.383 28.81 134.653 28.29 134.813 27.73C134.973 27.15 135.053 26.6 135.053 26.08V12.76H138.833V26.2ZM158.054 17.74C157.274 16.9 156.514 16.34 155.774 16.06C155.054 15.78 154.324 15.64 153.584 15.64C152.484 15.64 151.484 15.84 150.584 16.24C149.704 16.62 148.944 17.16 148.304 17.86C147.664 18.54 147.164 19.34 146.804 20.26C146.464 21.18 146.294 22.17 146.294 23.23C146.294 24.37 146.464 25.42 146.804 26.38C147.164 27.34 147.664 28.17 148.304 28.87C148.944 29.57 149.704 30.12 150.584 30.52C151.484 30.92 152.484 31.12 153.584 31.12C154.444 31.12 155.274 30.92 156.074 30.52C156.894 30.1 157.654 29.44 158.354 28.54L161.474 30.76C160.514 32.08 159.344 33.04 157.964 33.64C156.584 34.24 155.114 34.54 153.554 34.54C151.914 34.54 150.404 34.28 149.024 33.76C147.664 33.22 146.484 32.47 145.484 31.51C144.504 30.53 143.734 29.36 143.174 28C142.614 26.64 142.334 25.13 142.334 23.47C142.334 21.77 142.614 20.23 143.174 18.85C143.734 17.45 144.504 16.26 145.484 15.28C146.484 14.3 147.664 13.55 149.024 13.03C150.404 12.49 151.914 12.22 153.554 12.22C154.994 12.22 156.324 12.48 157.544 13C158.784 13.5 159.934 14.36 160.994 15.58L158.054 17.74ZM164.011 12.76H167.791V21.22H177.721V12.76H181.501V34H177.721V24.64H167.791V34H164.011V12.76ZM186.247 12.76H200.317V16.18H190.027V21.4H199.777V24.82H190.027V30.58H200.857V34H186.247V12.76ZM204.587 12.76H211.967C212.987 12.76 213.967 12.86 214.907 13.06C215.867 13.24 216.717 13.56 217.457 14.02C218.197 14.48 218.787 15.1 219.227 15.88C219.667 16.66 219.887 17.65 219.887 18.85C219.887 20.39 219.457 21.68 218.597 22.72C217.757 23.76 216.547 24.39 214.967 24.61L220.607 34H216.047L211.127 25H208.367V34H204.587V12.76ZM211.307 21.76C211.847 21.76 212.387 21.74 212.927 21.7C213.467 21.64 213.957 21.52 214.397 21.34C214.857 21.14 215.227 20.85 215.507 20.47C215.787 20.07 215.927 19.52 215.927 18.82C215.927 18.2 215.797 17.7 215.537 17.32C215.277 16.94 214.937 16.66 214.517 16.48C214.097 16.28 213.627 16.15 213.107 16.09C212.607 16.03 212.117 16 211.637 16H208.367V21.76H211.307Z" fill="#787D92"/>
    <defs>
        <linearGradient id="Gradient1" x1="-8.94069e-08" y1="12.1556" x2="32" y2="12.1556" gradientUnits="userSpaceOnUse">
            <stop stop-color="#8860D0" offset="0"/>
            <stop stop-color="#5580E9" offset="1"/>
        </linearGradient>
        <linearGradient id="Gradient2" x1="-8.94069e-08" y1="23.9997" x2="32" y2="23.9997" gradientUnits="userSpaceOnUse">
            <stop stop-color="#8860D0" offset="0"/>
            <stop stop-color="#5580E9" offset="1"/>
        </linearGradient>
    </defs>
</svg>